<?xml version="1.0" encoding="UTF-8" standalone="no"?>
<!-- Created with Inkscape (http://www.inkscape.org/) -->

<svg
   xmlns:dc="http://purl.org/dc/elements/1.1/"
   xmlns:cc="http://creativecommons.org/ns#"
   xmlns:rdf="http://www.w3.org/1999/02/22-rdf-syntax-ns#"
   xmlns:svg="http://www.w3.org/2000/svg"
   xmlns="http://www.w3.org/2000/svg"
   xmlns:sodipodi="http://sodipodi.sourceforge.net/DTD/sodipodi-0.dtd"
   xmlns:inkscape="http://www.inkscape.org/namespaces/inkscape"
   width="259.9978"
   height="270.49524"
   id="svg5207"
   version="1.1"
   inkscape:version="0.48.5 r10040"
   sodipodi:docname="stove.svg">
  <defs
     id="defs5209" />
  <sodipodi:namedview
     id="base"
     pagecolor="#ffffff"
     bordercolor="#666666"
     borderopacity="1.0"
     inkscape:pageopacity="0.0"
     inkscape:pageshadow="2"
     inkscape:zoom="3.1141171"
     inkscape:cx="-26.298701"
     inkscape:cy="266.87747"
     inkscape:document-units="px"
     inkscape:current-layer="layer1"
     showgrid="false"
     fit-margin-top="0"
     fit-margin-left="0"
     fit-margin-right="0"
     fit-margin-bottom="0"
     inkscape:window-width="1856"
     inkscape:window-height="1058"
     inkscape:window-x="-8"
     inkscape:window-y="-8"
     inkscape:window-maximized="1" />
  <metadata
     id="metadata5212">
    <rdf:RDF>
      <cc:Work
         rdf:about="">
        <dc:format>image/svg+xml</dc:format>
        <dc:type
           rdf:resource="http://purl.org/dc/dcmitype/StillImage" />
        <dc:title />
      </cc:Work>
    </rdf:RDF>
  </metadata>
  <g
     inkscape:label="Layer 1"
     inkscape:groupmode="layer"
     id="layer1"
     transform="translate(-245.0011,-337.21683)">
    <rect
       y="479.2012"
       x="315.43982"
       height="8.2842712"
       width="86.620575"
       id="rect4474"
       style="fill:#303031;fill-opacity:1;stroke:none" />
    <rect
       style="fill:#89898b;fill-opacity:1;stroke:none"
       id="rect4457"
       width="178.1909"
       height="8.2842712"
       x="269.65466"
       y="483.97421" />
    <path
       style="fill:none;stroke:#c7c7c7;stroke-width:9.77419376;stroke-miterlimit:4;stroke-opacity:1"
       d="m 281.9913,483.99653 0,-8.13871 c 0,-6.904 5.558,-12.46209 12.4621,-12.46209 l 22.0556,0"
       id="rect4461"
       inkscape:connector-curvature="0"
       sodipodi:nodetypes="cssc" />
    <path
       sodipodi:nodetypes="cssc"
       inkscape:connector-curvature="0"
       id="path4464"
       d="m 435.509,483.99653 0,-8.13871 c 0,-6.904 -5.558,-12.46209 -12.4621,-12.46209 l -22.0556,0"
       style="fill:none;stroke:#c7c7c7;stroke-width:9.77419376;stroke-miterlimit:4;stroke-opacity:1" />
    <path
       sodipodi:nodetypes="cc"
       inkscape:connector-curvature="0"
       id="path4472"
       d="m 358.7501,461.89938 0,22.0556"
       style="fill:none;stroke:#c7c7c7;stroke-width:9.77419376;stroke-miterlimit:4;stroke-opacity:1" />
    <path
       style="fill:#5c5c5c;fill-opacity:1;stroke:none"
       d="m 245.0011,536.58706 0,71.12502 243.4375,0 0,-71.12502 -243.4375,0 z"
       id="rect4608"
       inkscape:connector-curvature="0" />
    <path
       style="fill:#262626;fill-opacity:1;stroke:none"
       d="m 245.0011,492.21206 0,85.76582 243.9248,0 c 8.9061,0 16.073,-7.167 16.073,-16.073 l 0,-69.69282 -259.9978,0 z"
       id="rect4592"
       inkscape:connector-curvature="0" />
    <path
       style="fill:#5c5c5c;fill-opacity:1;stroke:none"
       d="m 322.4878,519.31227 c -6.0789,-4.95811 -15.0488,-4.60549 -20.7152,1.06088 -6.0441,6.04414 -6.0441,15.84365 0,21.88779 6.0442,6.04413 15.8437,6.04413 21.8878,0 5.6664,-5.66638 6.019,-14.63623 1.0609,-20.7152 l -8.0962,8.09623 -2.2335,-2.23346 8.0962,-8.09624 z"
       id="path4613"
       inkscape:connector-curvature="0" />
    <path
       inkscape:connector-curvature="0"
       id="path4628"
       d="m 406.3593,515.90746 c -7.8044,0.79257 -13.8977,7.38455 -13.8977,15.39802 0,8.5477 6.9293,15.477 15.477,15.477 8.5477,0 15.477,-6.9293 15.477,-15.477 0,-8.01347 -6.0933,-14.60545 -13.8977,-15.39802 l 0,11.44981 -3.1586,0 0,-11.44981 z"
       style="fill:#5c5c5c;fill-opacity:1;stroke:none" />
    <path
       inkscape:connector-curvature="0"
       style="fill:#313131;fill-opacity:1;stroke:none"
       d="m 245.0011,597.71206 0,10 190.9375,0 0,-10 -190.9375,0 z"
       id="rect4632" />
    <g
       id="g4493"
       transform="matrix(2.1180571,0,0,2.1180571,-2457.8356,-1170.8002)">
      <path
         sodipodi:nodetypes="csssscc"
         inkscape:connector-curvature="0"
         transform="translate(0,332.36218)"
         id="rect4476"
         d="m 1300.1875,394.72671 0,34.11704 c 0,4.01531 3.2347,7.25 7.25,7.25 l 44.7187,0 c 4.0154,0 7.25,-3.23469 7.25,-7.25 l 0,-34.11704 z"
         style="fill:#303031;fill-opacity:1;stroke:none" />
      <path
         style="fill:none;stroke:#c7c7c7;stroke-width:3.59524322;stroke-miterlimit:4;stroke-opacity:1"
         d="m 1359.5735,738.48613 0,-2.99367 c 0,-2.5395 2.0444,-4.58393 4.584,-4.58393 l 8.1127,0"
         id="path4483"
         inkscape:connector-curvature="0"
         sodipodi:nodetypes="cssc" />
      <path
         sodipodi:nodetypes="cssc"
         inkscape:connector-curvature="0"
         id="path4485"
         d="m 1300.0202,738.48613 0,-2.99367 c 0,-2.5395 -2.0444,-4.58393 -4.584,-4.58393 l -8.1127,0"
         style="fill:none;stroke:#c7c7c7;stroke-width:3.59524322;stroke-miterlimit:4;stroke-opacity:1" />
    </g>
    <g
       id="g4537"
       transform="matrix(0.99999996,-2.8872043e-4,2.8872043e-4,0.99999996,-1095.422,-449.17823)"
       inkscape:transform-center-x="62.364779"
       inkscape:transform-center-y="-13.74667">
      <path
         id="path4498"
         transform="translate(0,332.36218)"
         d="m 1453.9375,460.40625 c -47.2713,0.0173 -64.4982,12.85285 -62.1563,21.59375 l 62.0313,0 c 0.077,-0.14321 0.125,-0.30526 0.125,-0.5 0,0.19474 0.048,0.35679 0.125,0.5 l 62.0313,0 c 2.3419,-8.7409 -14.885,-21.57645 -62.1563,-21.59375 z"
         style="fill:#c7c7c7;fill-opacity:1;stroke:none"
         inkscape:connector-curvature="0" />
      <rect
         transform="matrix(0,1,-1,0,0,0)"
         ry="0.8521719"
         rx="0.5965203"
         y="-1461.1559"
         x="786.81671"
         height="14.202865"
         width="7.9536042"
         id="rect4503"
         style="fill:#303031;fill-opacity:1;stroke:none" />
    </g>
  </g>
</svg>
